<svg viewBox="0 0 32 32" version="1.1" xmlns="http://www.w3.org/2000/svg" xmlns:xlink="http://www.w3.org/1999/xlink">
    <path d="M17.251 14.504a3.66 3.66 0 0 1 1.46.294 3.78 3.78 0 0 1 1.195.803c.339.339.607.736.803 1.191a3.63 3.63 0 0 1 .294 1.456 3.66 3.66 0 0 1-.294 1.46 3.78 3.78 0 0 1-1.998 1.998 3.66 3.66 0 0 1-1.46.294H11V8h6.251c.449 0 .869.086 1.262.257s.736.404 1.031.698.527.638.698 1.031.257.813.257 1.262a3.2 3.2 0 0 1-.252 1.266c-.168.395-.4.74-.694 1.035a3.3 3.3 0 0 1-1.035.698c-.395.171-.818.257-1.266.257zm-1.75-4.501h-1.27v3.996h1.27c.275 0 .534-.053.778-.16s.456-.25.635-.429.323-.391.429-.635.16-.503.16-.778-.053-.533-.16-.774-.25-.453-.429-.635-.391-.325-.635-.429-.503-.156-.778-.156zm.496 9.995c.275 0 .534-.052.778-.156s.456-.247.635-.429.323-.394.429-.635.16-.499.16-.774-.052-.534-.156-.778-.247-.457-.429-.639-.395-.325-.639-.429-.503-.156-.778-.156h-1.767v3.996h1.767z" fill="#666" fill-rule="nonzero"/>
</svg>