<svg viewBox="0 0 32 32" version="1.1" xmlns="http://www.w3.org/2000/svg" xmlns:xlink="http://www.w3.org/1999/xlink">
    <defs>
        <path d="M2 7a.97.97 0 0 1 .391.078c.12.052.225.124.316.215s.163.197.215.316A.97.97 0 0 1 3 8a.97.97 0 0 1-.078.391c-.052.12-.124.225-.215.316s-.197.163-.316.215A.97.97 0 0 1 2 9a.97.97 0 0 1-.391-.078c-.12-.052-.225-.124-.316-.215s-.163-.197-.215-.316A.97.97 0 0 1 1 8a.97.97 0 0 1 .078-.391c.052-.12.124-.225.215-.316s.197-.163.316-.215A.97.97 0 0 1 2 7zm6 0a.97.97 0 0 1 .391.078c.12.052.225.124.316.215s.163.197.215.316A.97.97 0 0 1 9 8a.97.97 0 0 1-.078.391c-.052.12-.124.225-.215.316s-.197.163-.316.215A.97.97 0 0 1 8 9a.97.97 0 0 1-.391-.078c-.12-.052-.225-.124-.316-.215s-.163-.197-.215-.316A.97.97 0 0 1 7 8a.97.97 0 0 1 .078-.391c.052-.12.124-.225.215-.316s.197-.163.316-.215A.97.97 0 0 1 8 7zm6 0a.97.97 0 0 1 .391.078c.12.052.225.124.316.215s.163.197.215.316A.97.97 0 0 1 15 8a.97.97 0 0 1-.078.391c-.052.12-.124.225-.215.316s-.197.163-.316.215A.97.97 0 0 1 14 9a.97.97 0 0 1-.391-.078c-.12-.052-.225-.124-.316-.215s-.163-.197-.215-.316A.97.97 0 0 1 13 8a.97.97 0 0 1 .078-.391c.052-.12.124-.225.215-.316s.197-.163.316-.215A.97.97 0 0 1 14 7z" id="A"/>
    </defs>
    <use fill="#000" xlink:href="#A" fill-rule="evenodd" transform="translate(8 8)"/>
</svg>