<svg xmlns="http://www.w3.org/2000/svg" viewBox="-5896 -8896 32 32">
    <path d="M-5875.219-8882.625c.498-.003.991.097 1.448.295a3.79 3.79 0 0 1 1.979 1.979c.196.456.296.948.292 1.445.003.498-.097.991-.295 1.448a3.79 3.79 0 0 1-1.979 1.979c-.457.198-.95.298-1.448.295h-4.247c-.498.002-.991-.099-1.448-.298a3.79 3.79 0 0 1-1.979-1.979c-.198-.457-.298-.95-.295-1.448-.003-.498.097-.991.295-1.448a3.79 3.79 0 0 1 1.979-1.979c.457-.198.95-.298 1.448-.295h.531v1.063a4.93 4.93 0 0 0-1.208.145c-.366.088-.711.246-1.017.465-.295.215-.534.497-.7.822-.184.381-.274.801-.261 1.224a2.53 2.53 0 0 0 .212 1.029c.137.314.331.6.573.843s.526.44.839.578a2.53 2.53 0 0 0 1.031.212h4.25a2.53 2.53 0 0 0 1.029-.212c.314-.137.6-.331.843-.573s.436-.529.573-.843a2.53 2.53 0 0 0 .212-1.029c.013-.423-.077-.843-.261-1.224-.166-.325-.405-.607-.7-.822-.306-.219-.651-.377-1.017-.465a4.93 4.93 0 0 0-1.21-.144v-1.062zm-5.844 4.25v-1.062a4.93 4.93 0 0 0 1.208-.146c.366-.088.711-.246 1.017-.465.295-.215.534-.497.7-.822.184-.381.274-.801.261-1.224a2.53 2.53 0 0 0-.212-1.029c-.137-.314-.331-.6-.573-.843s-.525-.435-.838-.572a2.53 2.53 0 0 0-1.031-.212h-4.25a2.53 2.53 0 0 0-1.029.212c-.314.137-.6.331-.843.573s-.436.529-.573.843a2.53 2.53 0 0 0-.212 1.029c-.013.423.077.843.261 1.224.166.325.405.607.7.822.306.219.651.377 1.017.465a4.93 4.93 0 0 0 1.208.145v1.063h-.531c-.498.003-.99-.098-1.447-.296a3.79 3.79 0 0 1-1.979-1.979c-.196-.456-.295-.948-.291-1.445-.003-.498.097-.991.295-1.448a3.79 3.79 0 0 1 1.979-1.979c.457-.198.95-.298 1.448-.295h4.25c.498-.003.991.097 1.448.295a3.79 3.79 0 0 1 1.979 1.979c.198.457.298.95.295 1.448.003.498-.097.991-.295 1.448a3.79 3.79 0 0 1-1.979 1.979c-.457.198-.95.298-1.448.295z" fill="#666"/>
</svg>