<svg xmlns="http://www.w3.org/2000/svg" viewBox="-10536 -10457 32 32">
    <path d="M-10524-10446h12v1h-12zm0 4h12v1h-12zm0 4h12v1h-12z" fill="#666"/>
    <path d="M-10526.879-10446.1a1.5 1.5 0 0 1-.311.178c-.11.053-.231.083-.353.087v-.573q.257-.091.49-.2c.159-.074.309-.166.448-.274h.405v3.2h-.679zm-.008 3.486c.133-.001.266.018.394.054a.9.9 0 0 1 .324.166c.092.075.166.17.216.278a.9.9 0 0 1 .079.39.98.98 0 0 1-.1.452 1.49 1.49 0 0 1-.245.349c-.097.102-.204.194-.32.274q-.174.12-.32.224c-.086.061-.167.13-.241.205-.06.055-.096.131-.1.212h1.325v.573h-2.083q0-.191 0-.34a.89.89 0 0 1 .083-.323 1.39 1.39 0 0 1 .34-.477q.216-.2.427-.361a3.42 3.42 0 0 0 .369-.332.55.55 0 0 0 .158-.39c.012-.119-.034-.237-.125-.315a.55.55 0 0 0-.332-.091.96.96 0 0 0-.411.091 1.61 1.61 0 0 0-.361.232v-.606c.275-.177.595-.271.922-.268zm.3 5.8c.187.022.363.1.506.224a.64.64 0 0 1 .208.506c.006.153-.029.305-.1.44-.066.118-.158.219-.27.295a1.19 1.19 0 0 1-.386.166 1.86 1.86 0 0 1-.444.054 2.5 2.5 0 0 1-.4-.033 1.34 1.34 0 0 1-.386-.125v-.606c.104.077.22.136.344.174a1.29 1.29 0 0 0 .386.058.8.8 0 0 0 .386-.091.35.35 0 0 0 .17-.34c.008-.102-.032-.202-.108-.27-.077-.061-.166-.103-.261-.125-.105-.025-.212-.038-.32-.037h-.29v-.531h.266c.096 0 .192-.009.286-.029a.51.51 0 0 0 .233-.116c.07-.066.107-.161.1-.257a.32.32 0 0 0-.137-.3.62.62 0 0 0-.328-.083 1.07 1.07 0 0 0-.614.2v-.56a1.45 1.45 0 0 1 .378-.129 2.09 2.09 0 0 1 .394-.037c.123 0 .245.014.365.042s.226.071.324.137.173.148.232.245a.67.67 0 0 1 .091.357.74.74 0 0 1-.162.5.87.87 0 0 1-.461.261z" fill="#2e77d0"/>
</svg>