<svg viewBox="-8 -8 32 32" version="1.1" xmlns="http://www.w3.org/2000/svg" xmlns:xlink="http://www.w3.org/1999/xlink">
    <defs>
        <path d="M8.5.031a5.32 5.32 0 0 1 1.445.195c.464.13.898.315 1.305.555a5.55 5.55 0 0 1 1.969 1.969c.24.406.424.841.555 1.305a5.32 5.32 0 0 1 .195 1.445c0 .714-.137 1.402-.41 2.066a5.32 5.32 0 0 1-1.168 1.754l-6.539 6.531-.703-.703 6.531-6.539c.411-.411.729-.887.953-1.426s.336-1.1.336-1.684a4.26 4.26 0 0 0-.355-1.727c-.237-.542-.559-1.016-.965-1.422s-.88-.728-1.422-.965A4.26 4.26 0 0 0 8.5 1.031c-.563 0-1.059.085-1.488.254s-.827.393-1.191.672-.715.595-1.051.949L3.711 4H7v1H2V0h1v3.289l.824-.848.789-.773c.263-.242.531-.464.805-.664a5.08 5.08 0 0 1 .875-.516c.31-.143.646-.255 1.008-.336S8.062.031 8.5.031z" id="A"/>
    </defs>
    <use fill="#666" fill-rule="evenodd" xlink:href="#A" transform="matrix(-1 0 0 1 16 0)"/>
</svg>