<svg xmlns="http://www.w3.org/2000/svg" viewBox="-5860 -8860 32 32">
    <path d="M-5835.5-8843.437h-4.208c.014.221.063.438.145.643a1.59 1.59 0 0 0 .324.506 1.39 1.39 0 0 0 .494.328c.209.08.432.12.656.116.211.001.421-.037.618-.112s.383-.175.552-.3v.73c-.193.116-.404.201-.623.253s-.452.079-.681.079a2.4 2.4 0 0 1-.909-.166 2.11 2.11 0 0 1-.71-.465 2.16 2.16 0 0 1-.469-.71 2.56 2.56 0 0 1-.187-.9h-.92c-.026.3-.093.595-.2.876-.097.261-.241.503-.423.714-.18.204-.403.367-.652.477-.279.118-.581.176-.884.168a1.58 1.58 0 0 1-1.436-.8h-.017v.689h-.764v-2.126h-1.443v2.125h-.772v-.748h-.017a1.6 1.6 0 0 1-1.474.86 2 2 0 0 1-.6-.087 1.35 1.35 0 0 1-.481-.261c-.138-.119-.248-.268-.32-.436a1.47 1.47 0 0 1-.116-.6 2 2 0 0 1 .05-.444c.033-.146.092-.286.174-.411h-1.707v-1.061h4.491c-.003-.275-.09-.543-.249-.768a.86.86 0 0 0-.73-.295c-.285-.002-.568.05-.834.154a2.7 2.7 0 0 0-.726.436v-.789c.24-.153.504-.267.78-.336a3.48 3.48 0 0 1 .847-.1 1.64 1.64 0 0 1 1.253.436c.293.354.443.804.422 1.262h1.453v-3.893h.764v3.138h.017a1.8 1.8 0 0 1 1.651-.945 2.06 2.06 0 0 1 .722.12c.209.076.401.193.564.344s.3.337.4.54c.109.221.184.457.224.7h1.07c.069-.265.186-.515.344-.739a2.27 2.27 0 0 1 .537-.535 2.26 2.26 0 0 1 .685-.324 2.9 2.9 0 0 1 .8-.108 3.22 3.22 0 0 1 .569.05c.187.034.367.095.535.183v.78a1.89 1.89 0 0 0-1.137-.374 1.54 1.54 0 0 0-.934.282c-.267.2-.472.47-.594.78h4.076zm-12.509 0h-1.7c-.164.055-.306.16-.407.3a.92.92 0 0 0-.116.5.77.77 0 0 0 .075.349c.048.097.116.182.2.249a.85.85 0 0 0 .291.149c.113.034.231.051.349.05.189.003.376-.035.548-.112a1.25 1.25 0 0 0 .411-.3 1.34 1.34 0 0 0 .258-.455c.062-.176.092-.361.091-.548zm4.457-2.125a1.43 1.43 0 0 0-.888.282c-.254.195-.435.47-.515.78h2.7a1.42 1.42 0 0 0-.457-.772c-.235-.197-.534-.3-.84-.29zm-.116 3.718c.211.005.419-.04.61-.129a1.3 1.3 0 0 0 .44-.349c.122-.152.216-.325.278-.51a2.75 2.75 0 0 0 .133-.606h-2.822v.174c-.002.19.032.378.1.556.063.166.157.318.278.448s.269.23.432.3a1.35 1.35 0 0 0 .551.116z" fill="#666"/>
</svg>