<svg viewBox="0 0 32 32" version="1.1" xmlns="http://www.w3.org/2000/svg" xmlns:xlink="http://www.w3.org/1999/xlink">
    <g id="Underline" stroke="none" stroke-width="1" fill="none" fill-rule="evenodd">
        <rect id="Rectangle" x="8" y="8" width="16" height="16"></rect>
        <path d="M16.225,21.8666667 C15.3305511,21.8666667 14.5694476,21.7375013 13.9416667,21.4791667 C13.3138857,21.220832 12.8013909,20.8513913 12.4041667,20.3708333 C12.0069425,19.8902754 11.7166676,19.3097256 11.5333333,18.6291667 C11.3499991,17.9486077 11.2583333,17.1861153 11.2583333,16.3416667 L11.2583333,8 L12.8583333,8 L12.8583333,16.2333333 C12.8583333,16.8388919 12.918055,17.3972197 13.0375,17.9083333 C13.156945,18.419447 13.3541653,18.8624981 13.6291667,19.2375 C13.904168,19.6125019 14.2666644,19.9055545 14.7166667,20.1166667 C15.1666689,20.3277788 15.7249967,20.4333333 16.3916667,20.4333333 C17.0305587,20.4333333 17.5680534,20.3319455 18.0041667,20.1291667 C18.44028,19.9263879 18.7916653,19.6458351 19.0583333,19.2875 C19.3250013,18.9291649 19.5166661,18.5013914 19.6333333,18.0041667 C19.7500006,17.506942 19.8083333,16.9666696 19.8083333,16.3833333 L19.8083333,8 L21.4083333,8 L21.4083333,16.125 C21.4083333,17.0027822 21.312501,17.7958298 21.1208333,18.5041667 C20.9291657,19.2125035 20.626391,19.8152753 20.2125,20.3125 C19.798609,20.8097247 19.2638922,21.1930542 18.6083333,21.4625 C17.9527745,21.7319458 17.158338,21.8666667 16.225,21.8666667 Z M11,22.9333333 L21.6666667,22.9333333 L21.6666667,24 L11,24 L11,22.9333333 Z" id="" fill="#666666" fill-rule="nonzero"></path>
    </g>
</svg>