<svg xmlns="http://www.w3.org/2000/svg" xmlns:xlink="http://www.w3.org/1999/xlink" width="249.278" height="68.066" viewBox="0 0 249.278 68.066">
  <defs>
    <clipPath id="clip-path">
      <rect id="Rectangle_541" data-name="Rectangle 541" width="78.468" height="67.964" fill="#fff"/>
    </clipPath>
  </defs>
  <g id="Group_540" data-name="Group 540" transform="translate(0.261 0)">
    <g id="Group_471" data-name="Group 471" transform="translate(81.166 11.073)">
      <g id="Group_467" data-name="Group 467" transform="translate(0 0)">
        <g id="Group_467-2" data-name="Group 467">
          <path id="Path_616" data-name="Path 616" d="M355.553,103.778v14.435c0,2.125.458,3.637,1.391,4.535a5.841,5.841,0,0,0,4.258,1.365,9.031,9.031,0,0,0,2.237-.285h.1a1.963,1.963,0,0,1,1.961,1.952v6.185a1.476,1.476,0,0,1-.968,1.4,21.845,21.845,0,0,1-2.375.708,21.235,21.235,0,0,1-4.777.475q-6.22,0-9.8-3.62-3.589-3.641-3.585-10.245V103.778h-4.466a1.119,1.119,0,0,1-1.123-1.114V95.33a1.119,1.119,0,0,1,1.123-1.114h4.466v-10.3a1.58,1.58,0,0,1,1.572-1.581h8.406a1.587,1.587,0,0,1,1.581,1.581v10.3h8.837a1.119,1.119,0,0,1,1.123,1.114v7.334a1.119,1.119,0,0,1-1.123,1.114Z" transform="translate(-338.405 -77.776)" fill="#fff"/>
          <path id="Path_617" data-name="Path 617" d="M527.528,73.644h-8.457a1.608,1.608,0,0,0-1.6,1.607v19.92a12.731,12.731,0,0,0-5.451-4.527,17.6,17.6,0,0,0-7.291-1.521,17.113,17.113,0,0,0-7.369,1.6,18.236,18.236,0,0,0-5.9,4.38,21.291,21.291,0,0,0-3.948,6.54,22.532,22.532,0,0,0-1.426,8.137,22.772,22.772,0,0,0,1.426,8.163,20.509,20.509,0,0,0,3.948,6.54,18.628,18.628,0,0,0,5.9,4.337,16.992,16.992,0,0,0,7.369,1.6,16.76,16.76,0,0,0,7.291-1.6,13.222,13.222,0,0,0,5.451-4.6V129a1.5,1.5,0,0,0,1.495,1.494h8.457a1.6,1.6,0,0,0,1.607-1.6V75.156A1.512,1.512,0,0,0,527.528,73.644ZM517.5,112.622c0,.008,0,.034-.017.043,0,.008-.009.026-.009.035a9.029,9.029,0,0,1-.38,1.054,10.625,10.625,0,0,1-2.16,3.239,9.725,9.725,0,0,1-3.179,2.186,10.294,10.294,0,0,1-7.973,0,9.888,9.888,0,0,1-3.2-2.186,10.741,10.741,0,0,1-2.142-3.239,10.373,10.373,0,0,1,0-7.965,10.59,10.59,0,0,1,2.142-3.231,10.181,10.181,0,0,1,3.2-2.194,10,10,0,0,1,11.152,2.194,10.478,10.478,0,0,1,2.16,3.231,9.665,9.665,0,0,1,.38,1.054c0,.017.009.026.009.035.017.026.017.035.017.043a10.647,10.647,0,0,1,0,5.7Z" transform="translate(-408.601 -73.644)" fill="#fff"/>
          <path id="Path_618" data-name="Path 618" d="M636.118,107.866V127.75c.023-.225.023-.461.023-.7v-19.4A.685.685,0,0,0,636.118,107.866Zm.011,32.758c0,.011-.011.011-.023.023a.011.011,0,0,1,.011.011v4.457a.689.689,0,0,0,.023.214v-4.693A.011.011,0,0,0,636.13,140.625Zm1.37,6.064a.7.7,0,0,0,.214.022h8.448a.7.7,0,0,0,.213-.022Z" transform="translate(-479.906 -89.809)" fill="#fff"/>
          <path id="Path_619" data-name="Path 619" d="M624.32,106.614v37.249a1.589,1.589,0,0,1-1.382,1.573h-8.875a1.563,1.563,0,0,1-1.359-1.359v-4.693a.011.011,0,0,0-.011-.011c0,.011-.012.011-.023.023a12.834,12.834,0,0,1-4.628,4.381,13.7,13.7,0,0,1-6.819,1.629q-6.774,0-10.594-4.3T586.8,129.329V106.614a1.594,1.594,0,0,1,1.6-1.6h8.46a1.585,1.585,0,0,1,1.584,1.6v19.929a9.119,9.119,0,0,0,1.8,6.033,6.3,6.3,0,0,0,5.134,2.156,6.654,6.654,0,0,0,5.348-2.359,9.346,9.346,0,0,0,1.965-5.875c.023-.225.023-.461.023-.7V106.4a1.563,1.563,0,0,1,1.573-1.382h8.448A1.594,1.594,0,0,1,624.32,106.614Z" transform="translate(-456.469 -88.557)" fill="#fff"/>
        </g>
        <g id="Group_468" data-name="Group 468" transform="translate(31.355 15.544)">
          <path id="Path_620" data-name="Path 620" d="M468.614,166.831a16.145,16.145,0,0,0,1.408-1.961.805.805,0,0,0,.086-.173A18.785,18.785,0,0,1,468.614,166.831Z" transform="translate(-431.65 -132.467)" fill="#fff"/>
          <path id="Path_621" data-name="Path 621" d="M437.176,115.822a19.937,19.937,0,0,0-4.1-6.651,18.326,18.326,0,0,0-6.332-4.345,20.945,20.945,0,0,0-8.18-1.555,20.688,20.688,0,0,0-8.086,1.555,19.542,19.542,0,0,0-6.462,4.345,20.274,20.274,0,0,0-4.3,6.574A21.521,21.521,0,0,0,398.164,124a22.066,22.066,0,0,0,1.546,8.37,19.614,19.614,0,0,0,4.3,6.565,19.212,19.212,0,0,0,6.583,4.267,22.868,22.868,0,0,0,8.449,1.512,21.263,21.263,0,0,0,11.127-2.79c.008,0,.008-.009.017-.009.38-.225.751-.475,1.105-.717.415-.285.812-.6,1.209-.916.328-.268.846-.735,1.157-1.028.207-.207.415-.414.613-.631.294-.328.588-.656.855-.993a18.782,18.782,0,0,0,1.494-2.134c0-.008,0-.017.017-.017a1.36,1.36,0,0,0-.561-1.685.523.523,0,0,0-.069-.035.9.9,0,0,0-.13-.06l-7.317-2.92-.181-.06a1.245,1.245,0,0,0-1.408.466,9.154,9.154,0,0,1-.933,1.132,5.984,5.984,0,0,1-.9.855,2.672,2.672,0,0,1-.354.293,1.345,1.345,0,0,1-.242.182,3.023,3.023,0,0,1-.32.225,9.186,9.186,0,0,1-5.183,1.279,9.957,9.957,0,0,1-6.41-2.272,8.519,8.519,0,0,1-2.116-2.514,7.992,7.992,0,0,1-.967-3.188h28.939a7,7,0,0,0,.121-1.114c.026-.484.035-1.054.035-1.754A23.659,23.659,0,0,0,437.176,115.822Zm-27.531,3.784a6.485,6.485,0,0,1,.907-2.7,9.473,9.473,0,0,1,1.952-2.315,9.581,9.581,0,0,1,2.713-1.633,9.6,9.6,0,0,1,9.243,1.442,7.9,7.9,0,0,1,2.8,5.209Z" transform="translate(-398.164 -103.27)" fill="#fff"/>
        </g>
      </g>
    </g>
    <g id="Group_539" data-name="Group 539" transform="translate(-0.261 0)">
      <g id="Group_538" data-name="Group 538" transform="translate(0 0)" clip-path="url(#clip-path)">
        <path id="Union_11" data-name="Union 11" d="M29.251,43.447c-.359-.438-.736-.877-1.14-1.315v-.009a41.214,41.214,0,0,0-6.8-5.89c-.5-.351-1.009-.7-1.542-1.043a87.493,87.493,0,0,1-8.5-6.232A65.1,65.1,0,0,1,0,17.1V14.7s3.278,5.89,12.017,12.965a83.883,83.883,0,0,0,8.591,6.065c.544.333,1.06.675,1.569,1.017a40.609,40.609,0,0,1,7.074,6.075l.009.009v-.009a40.5,40.5,0,0,1,7.091-6.083h0l-1.051-1.8a.468.468,0,0,1-.044-.069L31,25.555l-1.727-2.963-1.727,2.963-4.277,7.328-1.088,1.867c-.509-.342-1.025-.683-1.569-1.017a83.814,83.814,0,0,1-8.591-6.066l.9-1.552c.009-.009.009-.027.018-.035L27.542.993a1.994,1.994,0,0,1,3.384-.1l8.485,14.6,6.163,10.6.928,1.587c-1.292,1.045-2.7,2.115-4.242,3.2,1.538-1.081,2.949-2.151,4.242-3.2C55.233,20.594,58.511,14.7,58.511,14.7v2.4A64.788,64.788,0,0,1,47.247,28.947a85.942,85.942,0,0,1-8.5,6.242c-.534.342-1.043.684-1.534,1.035a41.318,41.318,0,0,0-6.811,5.9v.009c-.4.438-.78.877-1.14,1.315v.009Z" transform="translate(9.979 0)" fill="#fff"/>
        <path id="Path_1329" data-name="Path 1329" d="M127.089,107.312H116.43a1.981,1.981,0,0,1-1.209-.921l-7.206-12.36-.877-1.5,9.467-8.231,1.253,2.147c0,.009.01.009.01.018l10.422,17.908a2,2,0,0,1-1.2,2.937" transform="translate(-50.096 -39.418)" fill="#fff"/>
        <path id="Path_1330" data-name="Path 1330" d="M135.25,127.52a2.047,2.047,0,0,1-.527.07h-9.615a2.028,2.028,0,0,1-.518-.07Z" transform="translate(-58.256 -59.626)" fill="#fff"/>
        <path id="Path_1331" data-name="Path 1331" d="M1.475,107.312h10.66a1.983,1.983,0,0,0,1.209-.921l7.206-12.36.876-1.5L11.959,84.3l-1.254,2.147c0,.009-.009.009-.009.018L.274,104.375a2,2,0,0,0,1.2,2.937" transform="translate(0 -39.418)" fill="#fff"/>
        <path id="Path_1333" data-name="Path 1333" d="M97.1,41.485c.325-.33.639-.65.942-.964.282-.3.554-.6.815-.889-.543.591-1.129,1.214-1.757,1.853M83.193,52.666c-.314.2-.623.41-.926.612-.282.192-.554.378-.825.58-.181.122-.351.245-.527.373-.474.346-.926.687-1.368,1.038-.245.192-.49.383-.724.586s-.49.4-.729.612c-.623.538-1.2,1.07-1.741,1.6-.256.245-.5.49-.729.729-.282.288-.554.575-.815.868-.389.421-.751.836-1.091,1.257l.005.005c.335-.415.7-.825,1.081-1.241.261-.293.532-.58.825-.868.224-.245.474-.485.719-.729.49-.474,1.006-.958,1.56-1.438.149-.133.3-.256.447-.383.224-.2.463-.389.7-.58.325-.266.671-.538,1.017-.8.272-.208.564-.431.852-.639.069-.053.149-.106.218-.16.367-.272.756-.532,1.139-.8.3-.2.607-.4.91-.6a87.118,87.118,0,0,0,9.094-6.724c1.752-1.5,3.3-2.944,4.643-4.3.059-.064.122-.122.176-.181-1.39,1.4-2.987,2.907-4.813,4.456a87.117,87.117,0,0,1-9.094,6.724m16.8-14.317c-.117.138-.24.277-.362.421.25-.282.49-.559.713-.825-.112.133-.229.272-.351.4M101.21,36.9c-.176.208-.351.431-.543.65-.106.128-.213.266-.325.4.3-.351.58-.692.847-1.017a.064.064,0,0,1,.027-.027c1.123-1.39,1.949-2.55,2.513-3.407-.575.857-1.4,2.018-2.518,3.4m3.514-5.015.005-.005V52.432c0,.069-.005.144-.011.213a1.578,1.578,0,0,0,.016-.224V31.854a.225.225,0,0,0-.011.027" transform="translate(-34.468 -14.894)" fill="#fff"/>
        <path id="Path_1334" data-name="Path 1334" d="M45.146,79.183a1.99,1.99,0,0,0,2.609,0l24.3-21.137,4.733-4.11c.011-.005.016-.016.027-.027a2.357,2.357,0,0,0,.309-.346c.027-.048.059-.091.085-.138a2.092,2.092,0,0,0,.16-.351c.021-.064.037-.128.053-.192a.986.986,0,0,0,.037-.218c.005-.069.011-.144.011-.213V31.894l-.005.005c-.005.016-.032.059-.075.133-.021.037-.043.085-.075.133-.043.08-.1.17-.165.277a.417.417,0,0,0-.059.1c-.154.256-.362.586-.623.974-.564.857-1.39,2.018-2.513,3.407a.064.064,0,0,0-.027.027c-.266.325-.543.666-.847,1.017-.224.266-.463.543-.713.825-.117.138-.245.282-.378.426s-.261.288-.394.437c-.261.293-.532.586-.815.889-.3.314-.618.634-.942.964-.053.059-.117.117-.176.181-1.347,1.352-2.891,2.8-4.643,4.3a87.118,87.118,0,0,1-9.094,6.724c-.3.2-.612.4-.91.6-.383.266-.772.527-1.139.8-.069.053-.149.106-.218.16-.288.208-.58.431-.852.639-.346.261-.692.532-1.017.8-.234.192-.474.383-.7.58-.149.128-.3.25-.447.383-.554.479-1.07.964-1.56,1.438-.245.245-.5.484-.719.729-.293.288-.564.574-.825.868-.383.415-.745.825-1.081,1.241,0,.005-.005.005-.005.011l-.011.011-.011-.011c0-.005-.005-.005-.005-.011-.335-.415-.7-.826-1.081-1.241-.261-.293-.532-.58-.815-.868-.229-.24-.474-.485-.729-.729-.543-.527-1.118-1.06-1.741-1.6-.24-.208-.485-.41-.729-.612s-.479-.394-.724-.586c-.442-.351-.894-.692-1.368-1.038-.176-.128-.346-.25-.527-.373-.272-.2-.543-.389-.825-.58-.3-.2-.612-.41-.926-.612a87.117,87.117,0,0,1-9.094-6.724,70.733,70.733,0,0,1-7.7-7.592c-.245-.272-.463-.543-.676-.8-.192-.218-.367-.442-.543-.65-.7-.863-1.283-1.64-1.757-2.311-.16-.224-.309-.437-.447-.634a.028.028,0,0,0-.011-.021c-.064-.091-.122-.181-.181-.266-.085-.122-.165-.24-.234-.351-.043-.059-.08-.122-.117-.181-.117-.181-.224-.341-.309-.485-.106-.17-.192-.314-.261-.426-.021-.037-.043-.069-.059-.1s-.032-.059-.048-.08-.027-.048-.037-.069c-.032-.059-.053-.1-.059-.112l-.005-.005V52.461c0,.069.005.138.011.208a1.958,1.958,0,0,0,.154.575,2.043,2.043,0,0,0,.1.186,2.249,2.249,0,0,0,.394.479c.011.011.016.021.027.027l4.733,4.11Z" transform="translate(-7.213 -14.913)" fill="#fff"/>
        <path id="Path_1335" data-name="Path 1335" d="M73.691,86.435l.005.005.005-.005c0-.005,0-.005-.005-.011s-.005.005-.005.011" transform="translate(-34.457 -40.41)" fill="#fff"/>
      </g>
    </g>
  </g>
</svg>
